<svg width="24" height="24" viewBox="0 0 24 24" fill="none" xmlns="http://www.w3.org/2000/svg">
<path d="M8.71836 15.713C5.26521 12.5527 4.35785 9.27977 4.17026 7.23175C4.05588 5.983 5.03823 5.02544 6.27719 4.83195L7.70458 4.60903C9.10986 4.38956 10.4355 5.32567 10.6987 6.72341L10.9266 7.93347C11.0302 8.4834 10.7257 9.02871 10.2031 9.22899C9.606 9.45786 9.31345 10.1264 9.61842 10.6884C9.9834 11.3611 10.5444 12.2329 11.2838 12.9097C12.0233 13.5864 12.9413 14.0681 13.6436 14.3722C14.2305 14.6263 14.8705 14.2758 15.0457 13.6607C15.199 13.1225 15.7152 12.771 16.2722 12.8255L17.4976 12.9456C18.9132 13.0842 19.9628 14.3219 19.8684 15.7411L19.7726 17.1826C19.6894 18.4338 18.8224 19.4969 17.5685 19.4934C15.5119 19.4876 12.1715 18.8732 8.71836 15.713Z" stroke="#131214" stroke-width="1.5"/>
</svg>
