<svg width="23" height="23" viewBox="0 0 23 23" fill="none" xmlns="http://www.w3.org/2000/svg">
<path d="M21.0922 11.4998C21.0922 16.7925 16.8015 21.0832 11.5088 21.0832C6.21611 21.0832 1.92551 16.7925 1.92551 11.4998C1.92551 6.20711 6.21611 1.9165 11.5088 1.9165C16.8015 1.9165 21.0922 6.20711 21.0922 11.4998Z" stroke="black"/>
<path d="M14.1061 9.64197C14.0111 8.91108 13.1719 7.73021 11.6629 7.73018C9.90957 7.73015 9.17181 8.70123 9.02211 9.18677C8.78856 9.83622 8.83527 11.1715 10.8904 11.317C13.4594 11.4991 14.4886 11.8023 14.3577 13.3746C14.2267 14.9467 12.7946 15.2865 11.6629 15.2499C10.5311 15.2136 8.67949 14.6937 8.60764 13.2953M11.4833 6.70654V7.73366M11.4833 15.2405V16.2898" stroke="black" stroke-linecap="round"/>
</svg>
