<svg width="24" height="24" viewBox="0 0 24 24" fill="none" xmlns="http://www.w3.org/2000/svg">
<path d="M18.7381 10.8148C18.7381 14.4197 15.5858 17.6744 13.5691 19.3877C12.6082 20.2041 11.2384 20.2041 10.2774 19.3877C8.2607 17.6743 5.10846 14.4197 5.10846 10.8148C5.10846 9.00741 5.82645 7.27404 7.10447 5.99601C8.3825 4.71799 10.1159 4 11.9233 4C13.7307 4 15.464 4.71799 16.7421 5.99601C18.0201 7.27404 18.7381 9.00741 18.7381 10.8148Z" stroke="#131214" stroke-width="1.5" stroke-linecap="round" stroke-linejoin="round"/>
<path d="M11.9233 13.0864C13.1778 13.0864 14.1949 12.0694 14.1949 10.8148C14.1949 9.56024 13.1778 8.54321 11.9233 8.54321C10.6687 8.54321 9.65167 9.56024 9.65167 10.8148C9.65167 12.0694 10.6687 13.0864 11.9233 13.0864Z" stroke="#131214" stroke-width="1.5" stroke-linecap="round" stroke-linejoin="round"/>
</svg>
