<svg width="23" height="23" viewBox="0 0 23 23" fill="none" xmlns="http://www.w3.org/2000/svg">
<path d="M12.9464 19.1668C12.9464 19.1668 13.9047 19.1668 14.863 21.0835C14.863 21.0835 17.9072 16.2918 20.613 15.3335" stroke="black" stroke-width="1.5" stroke-linecap="round" stroke-linejoin="round"/>
<path d="M6.71719 15.3332H10.5505M6.71719 10.5415H14.3839" stroke="black" stroke-width="1.5" stroke-linecap="round"/>
<path d="M6.23802 3.354C4.74705 3.39873 3.8581 3.56468 3.24301 4.18035C2.40094 5.0232 2.40094 6.37975 2.40094 9.09285V15.3278C2.40094 18.0409 2.40094 19.3975 3.24301 20.2403C4.08508 21.0832 5.44037 21.0832 8.15094 21.0832H10.5468M14.8555 3.354C16.3465 3.39873 17.2355 3.56468 17.8505 4.18036C18.6926 5.0232 18.6926 6.37975 18.6926 9.09285V12.9373" stroke="black" stroke-width="1.5" stroke-linecap="round"/>
<path d="M6.23428 3.59359C6.23428 2.66736 6.98515 1.9165 7.91137 1.9165H13.1822C14.1084 1.9165 14.8593 2.66736 14.8593 3.59359C14.8593 4.51982 14.1084 5.27067 13.1822 5.27067H7.91137C6.98515 5.27067 6.23428 4.51982 6.23428 3.59359Z" stroke="black" stroke-width="1.5" stroke-linejoin="round"/>
</svg>
