<svg width="46" height="46" viewBox="0 0 46 46" fill="none" xmlns="http://www.w3.org/2000/svg">
<rect width="46" height="46" rx="23" fill="#2A9D8F"/>
<path fill-rule="evenodd" clip-rule="evenodd" d="M31 23C31 23.5757 30.5339 24.0435 29.9564 24.0435H24.0427V29.9565C24.0427 30.5322 23.5766 31 22.9991 31C22.4217 31 21.9573 30.5322 21.9573 29.9565V24.0435H16.0419C15.4644 24.0435 15 23.5757 15 23C15 22.4243 15.4644 21.9565 16.0419 21.9565H21.9573V16.0435C21.9573 15.4678 22.4217 15 22.9991 15C23.5766 15 24.0427 15.4678 24.0427 16.0435V21.9565H29.9564C30.5339 21.9565 31 22.4243 31 23Z" fill="white"/>
</svg>
